<?xml version="1.0" encoding="UTF-8" standalone="no"?>
<!DOCTYPE svg PUBLIC "-//W3C//DTD SVG 1.1//EN"
 "http://www.w3.org/Graphics/SVG/1.1/DTD/svg11.dtd">
<!-- Generated by graphviz version 2.43.0 (0)
 -->
<!-- Title: nmap_flows Pages: 1 -->
<svg width="1066pt" height="581pt"
 viewBox="0.00 0.00 1066.00 581.00" xmlns="http://www.w3.org/2000/svg" xmlns:xlink="http://www.w3.org/1999/xlink">
<g id="graph0" class="graph" transform="scale(1 1) rotate(0) translate(4 577)">
<title>nmap_flows</title>
<polygon fill="white" stroke="transparent" points="-4,4 -4,-577 1062,-577 1062,4 -4,4"/>
<text text-anchor="middle" x="529" y="-31.2" font-family="Helvetica,sans-Serif" font-size="11.00">Network Data&#45;Flow Diagram (Nmap&#45;derived)</text>
<text text-anchor="middle" x="529" y="-19.2" font-family="Helvetica,sans-Serif" font-size="11.00">Scan origin: 192.168.1.50 &#160;&#160;&#160;Scan started: Mon Jul &#160;1 10:00:00 2026</text>
<text text-anchor="middle" x="529" y="-7.2" font-family="Helvetica,sans-Serif" font-size="11.00">This report describes services and reachability observed from the Nmap scanner’s location. It does not independently prove normal production communications between all listed systems.</text>
<g id="clust1" class="cluster">
<title>cluster_zone_0</title>
<path fill="none" stroke="#8c959f" d="M180.5,-84C180.5,-84 315.5,-84 315.5,-84 321.5,-84 327.5,-90 327.5,-96 327.5,-96 327.5,-144 327.5,-144 327.5,-150 321.5,-156 315.5,-156 315.5,-156 180.5,-156 180.5,-156 174.5,-156 168.5,-150 168.5,-144 168.5,-144 168.5,-96 168.5,-96 168.5,-90 174.5,-84 180.5,-84"/>
<text text-anchor="middle" x="248" y="-91.2" font-family="Helvetica,sans-Serif" font-size="11.00">Zone: Management</text>
</g>
<g id="clust2" class="cluster">
<title>cluster_zone_1</title>
<path fill="none" stroke="#8c959f" d="M447.5,-52C447.5,-52 877.5,-52 877.5,-52 883.5,-52 889.5,-58 889.5,-64 889.5,-64 889.5,-258 889.5,-258 889.5,-264 883.5,-270 877.5,-270 877.5,-270 447.5,-270 447.5,-270 441.5,-270 435.5,-264 435.5,-258 435.5,-258 435.5,-64 435.5,-64 435.5,-58 441.5,-52 447.5,-52"/>
<text text-anchor="middle" x="662.5" y="-59.2" font-family="Helvetica,sans-Serif" font-size="11.00">Zone: Servers</text>
</g>
<g id="clust3" class="cluster">
<title>cluster_legend</title>
<polygon fill="none" stroke="#8c959f" points="213,-278 213,-565 605.5,-565 605.5,-278 213,-278"/>
<text text-anchor="middle" x="409.25" y="-285" font-family="Helvetica,sans-Serif" font-size="10.00">Legend</text>
</g>
<!-- n_192_168_1_50 -->
<g id="node1" class="node">
<title>n_192_168_1_50</title>
<path fill="#f6f8fa" stroke="black" d="M307.5,-148C307.5,-148 188.5,-148 188.5,-148 182.5,-148 176.5,-142 176.5,-136 176.5,-136 176.5,-124 176.5,-124 176.5,-118 182.5,-112 188.5,-112 188.5,-112 307.5,-112 307.5,-112 313.5,-112 319.5,-118 319.5,-124 319.5,-124 319.5,-136 319.5,-136 319.5,-142 313.5,-148 307.5,-148"/>
<text text-anchor="middle" x="248" y="-127.5" font-family="Helvetica,sans-Serif" font-size="10.00">sec&#45;scan01\n192.168.1.50</text>
</g>
<!-- n_192_168_10_10 -->
<g id="node2" class="node">
<title>n_192_168_10_10</title>
<path fill="#f6f8fa" stroke="black" d="M601.5,-262C601.5,-262 455.5,-262 455.5,-262 449.5,-262 443.5,-256 443.5,-250 443.5,-250 443.5,-222 443.5,-222 443.5,-216 449.5,-210 455.5,-210 455.5,-210 601.5,-210 601.5,-210 607.5,-210 613.5,-216 613.5,-222 613.5,-222 613.5,-250 613.5,-250 613.5,-256 607.5,-262 601.5,-262"/>
<text text-anchor="middle" x="528.5" y="-250" font-family="Helvetica,sans-Serif" font-size="10.00">dc01.example.local</text>
<text text-anchor="middle" x="528.5" y="-239" font-family="Helvetica,sans-Serif" font-size="10.00">192.168.10.10</text>
<text text-anchor="middle" x="528.5" y="-228" font-family="Helvetica,sans-Serif" font-size="10.00">Microsoft Windows Server 2019</text>
<text text-anchor="middle" x="528.5" y="-217" font-family="Helvetica,sans-Serif" font-size="10.00">Domain controller (100%)</text>
</g>
<!-- n_192_168_1_50&#45;&gt;n_192_168_10_10 -->
<g id="edge1" class="edge">
<title>n_192_168_1_50&#45;&gt;n_192_168_10_10</title>
<path fill="none" stroke="#24292f" d="M280.73,-148.2C297.31,-157.27 318.14,-167.98 337.5,-176 368.07,-188.66 402.32,-200.23 433.23,-209.77"/>
<polygon fill="#24292f" stroke="#24292f" points="432.56,-213.22 443.14,-212.79 434.6,-206.53 432.56,-213.22"/>
<text text-anchor="middle" x="381.5" y="-249.8" font-family="Helvetica,sans-Serif" font-size="9.00" fill="#24292f">tcp/389 LDAP</text>
<text text-anchor="middle" x="381.5" y="-239.8" font-family="Helvetica,sans-Serif" font-size="9.00" fill="#24292f">tcp/445 SMB</text>
<text text-anchor="middle" x="381.5" y="-229.8" font-family="Helvetica,sans-Serif" font-size="9.00" fill="#24292f">tcp/53 DNS</text>
<text text-anchor="middle" x="381.5" y="-219.8" font-family="Helvetica,sans-Serif" font-size="9.00" fill="#24292f">tcp/88 Kerberos</text>
<text text-anchor="middle" x="381.5" y="-209.8" font-family="Helvetica,sans-Serif" font-size="9.00" fill="#24292f">udp/53 DNS</text>
</g>
<!-- n_192_168_10_20 -->
<g id="node3" class="node">
<title>n_192_168_10_20</title>
<path fill="#f6f8fa" stroke="black" d="M577,-192C577,-192 480,-192 480,-192 474,-192 468,-186 468,-180 468,-180 468,-152 468,-152 468,-146 474,-140 480,-140 480,-140 577,-140 577,-140 583,-140 589,-146 589,-152 589,-152 589,-180 589,-180 589,-186 583,-192 577,-192"/>
<text text-anchor="middle" x="528.5" y="-180" font-family="Helvetica,sans-Serif" font-size="10.00">web01.example.local</text>
<text text-anchor="middle" x="528.5" y="-169" font-family="Helvetica,sans-Serif" font-size="10.00">192.168.10.20</text>
<text text-anchor="middle" x="528.5" y="-158" font-family="Helvetica,sans-Serif" font-size="10.00">Linux 5.15</text>
<text text-anchor="middle" x="528.5" y="-147" font-family="Helvetica,sans-Serif" font-size="10.00">Web server (100%)</text>
</g>
<!-- n_192_168_1_50&#45;&gt;n_192_168_10_20 -->
<g id="edge2" class="edge">
<title>n_192_168_1_50&#45;&gt;n_192_168_10_20</title>
<path fill="none" stroke="#24292f" d="M319.64,-139.13C361.92,-144.6 415.45,-151.52 457.6,-156.96"/>
<polygon fill="#24292f" stroke="#24292f" points="457.41,-160.47 467.78,-158.28 458.31,-153.53 457.41,-160.47"/>
<text text-anchor="middle" x="381.5" y="-164.8" font-family="Helvetica,sans-Serif" font-size="9.00" fill="#24292f">tcp/22 SSH</text>
<text text-anchor="middle" x="381.5" y="-154.8" font-family="Helvetica,sans-Serif" font-size="9.00" fill="#24292f">tcp/443 HTTPS</text>
</g>
<!-- n_192_168_10_30 -->
<g id="node4" class="node">
<title>n_192_168_10_30</title>
<path fill="#f6f8fa" stroke="black" d="M869.5,-162C869.5,-162 758.5,-162 758.5,-162 752.5,-162 746.5,-156 746.5,-150 746.5,-150 746.5,-122 746.5,-122 746.5,-116 752.5,-110 758.5,-110 758.5,-110 869.5,-110 869.5,-110 875.5,-110 881.5,-116 881.5,-122 881.5,-122 881.5,-150 881.5,-150 881.5,-156 875.5,-162 869.5,-162"/>
<text text-anchor="middle" x="814" y="-150" font-family="Helvetica,sans-Serif" font-size="10.00">db01.example.local</text>
<text text-anchor="middle" x="814" y="-139" font-family="Helvetica,sans-Serif" font-size="10.00">192.168.10.30</text>
<text text-anchor="middle" x="814" y="-128" font-family="Helvetica,sans-Serif" font-size="10.00">Linux 5.15</text>
<text text-anchor="middle" x="814" y="-117" font-family="Helvetica,sans-Serif" font-size="10.00">Database server (100%)</text>
</g>
<!-- n_192_168_1_50&#45;&gt;n_192_168_10_30 -->
<g id="edge3" class="edge">
<title>n_192_168_1_50&#45;&gt;n_192_168_10_30</title>
<path fill="none" stroke="#24292f" d="M285.76,-111.96C322.61,-94.95 381.47,-70.67 435.5,-61 513.37,-47.06 535.66,-46.85 613.5,-61 660.82,-69.6 711.52,-88.8 749.97,-105.62"/>
<polygon fill="#24292f" stroke="#24292f" points="748.91,-108.98 759.47,-109.84 751.75,-102.59 748.91,-108.98"/>
<text text-anchor="middle" x="528.5" y="-63.8" font-family="Helvetica,sans-Serif" font-size="9.00" fill="#24292f">tcp/5432 PostgreSQL</text>
</g>
<!-- n_192_168_10_40 -->
<g id="node5" class="node">
<title>n_192_168_10_40</title>
<path fill="#f6f8fa" stroke="black" d="M583,-121.5C583,-121.5 474,-121.5 474,-121.5 468,-121.5 462,-115.5 462,-109.5 462,-109.5 462,-92.5 462,-92.5 462,-86.5 468,-80.5 474,-80.5 474,-80.5 583,-80.5 583,-80.5 589,-80.5 595,-86.5 595,-92.5 595,-92.5 595,-109.5 595,-109.5 595,-115.5 589,-121.5 583,-121.5"/>
<text text-anchor="middle" x="528.5" y="-109.5" font-family="Helvetica,sans-Serif" font-size="10.00">legacy01.example.local</text>
<text text-anchor="middle" x="528.5" y="-98.5" font-family="Helvetica,sans-Serif" font-size="10.00">192.168.10.40</text>
<text text-anchor="middle" x="528.5" y="-87.5" font-family="Helvetica,sans-Serif" font-size="10.00">Microsoft Windows 7</text>
</g>
<!-- n_192_168_1_50&#45;&gt;n_192_168_10_40 -->
<g id="edge4" class="edge">
<title>n_192_168_1_50&#45;&gt;n_192_168_10_40</title>
<path fill="none" stroke="#24292f" d="M319.83,-113.76C325.79,-112.71 331.74,-111.77 337.5,-111 374.9,-106.03 416.75,-103.51 451.64,-102.23"/>
<polygon fill="#24292f" stroke="#24292f" points="451.88,-105.73 461.75,-101.89 451.64,-98.73 451.88,-105.73"/>
<text text-anchor="middle" x="381.5" y="-133.8" font-family="Helvetica,sans-Serif" font-size="9.00" fill="#24292f">tcp/23 Telnet</text>
<text text-anchor="middle" x="381.5" y="-123.8" font-family="Helvetica,sans-Serif" font-size="9.00" fill="#24292f">tcp/445 SMB</text>
<text text-anchor="middle" x="381.5" y="-113.8" font-family="Helvetica,sans-Serif" font-size="9.00" fill="#24292f">tcp/9100 Raw Print</text>
</g>
<!-- n_192_168_10_20&#45;&gt;n_192_168_10_30 -->
<g id="edge5" class="edge">
<title>n_192_168_10_20&#45;&gt;n_192_168_10_30</title>
<path fill="none" stroke="#1a7f37" stroke-dasharray="1,5" d="M589.28,-159.67C632.11,-155.14 690.15,-149 736.38,-144.11"/>
<polygon fill="#1a7f37" stroke="#1a7f37" points="736.78,-147.58 746.36,-143.05 736.05,-140.62 736.78,-147.58"/>
<text text-anchor="middle" x="680" y="-156.8" font-family="Helvetica,sans-Serif" font-size="9.00" fill="#1a7f37">tcp/5432 PostgreSQL</text>
</g>
<!-- leg_a_0 -->
<g id="node6" class="node">
<title>leg_a_0</title>
</g>
<!-- leg_b_0 -->
<g id="node7" class="node">
<title>leg_b_0</title>
<text text-anchor="middle" x="528.5" y="-536.5" font-family="Helvetica,sans-Serif" font-size="10.00">Inferred</text>
</g>
<!-- leg_a_0&#45;&gt;leg_b_0 -->
<g id="edge6" class="edge">
<title>leg_a_0&#45;&gt;leg_b_0</title>
<path fill="none" stroke="#0969da" stroke-dasharray="5,2" d="M275.2,-539C325.04,-539 433.62,-539 490.72,-539"/>
<polygon fill="#0969da" stroke="#0969da" points="490.76,-542.5 500.76,-539 490.76,-535.5 490.76,-542.5"/>
</g>
<!-- leg_a_1 -->
<g id="node8" class="node">
<title>leg_a_1</title>
</g>
<!-- leg_b_1 -->
<g id="node9" class="node">
<title>leg_b_1</title>
<text text-anchor="middle" x="528.5" y="-482.5" font-family="Helvetica,sans-Serif" font-size="10.00">Manual Review Required</text>
</g>
<!-- leg_a_1&#45;&gt;leg_b_1 -->
<g id="edge7" class="edge">
<title>leg_a_1&#45;&gt;leg_b_1</title>
<path fill="none" stroke="#cf222e" stroke-dasharray="5,2" d="M275.2,-485C314.61,-485 390.73,-485 449.1,-485"/>
<polygon fill="#cf222e" stroke="#cf222e" points="449.41,-488.5 459.41,-485 449.41,-481.5 449.41,-488.5"/>
</g>
<!-- leg_a_2 -->
<g id="node10" class="node">
<title>leg_a_2</title>
</g>
<!-- leg_b_2 -->
<g id="node11" class="node">
<title>leg_b_2</title>
<text text-anchor="middle" x="528.5" y="-428.5" font-family="Helvetica,sans-Serif" font-size="10.00">Observed</text>
</g>
<!-- leg_a_2&#45;&gt;leg_b_2 -->
<g id="edge8" class="edge">
<title>leg_a_2&#45;&gt;leg_b_2</title>
<path fill="none" stroke="#24292f" d="M275.2,-431C323.9,-431 428.65,-431 486.7,-431"/>
<polygon fill="#24292f" stroke="#24292f" points="486.97,-434.5 496.97,-431 486.97,-427.5 486.97,-434.5"/>
</g>
<!-- leg_a_3 -->
<g id="node12" class="node">
<title>leg_a_3</title>
</g>
<!-- leg_b_3 -->
<g id="node13" class="node">
<title>leg_b_3</title>
<text text-anchor="middle" x="528.5" y="-374.5" font-family="Helvetica,sans-Serif" font-size="10.00">Unknown</text>
</g>
<!-- leg_a_3&#45;&gt;leg_b_3 -->
<g id="edge9" class="edge">
<title>leg_a_3&#45;&gt;leg_b_3</title>
<path fill="none" stroke="#9a6700" stroke-dasharray="5,2" d="M275.2,-377C324.02,-377 429.2,-377 487.15,-377"/>
<polygon fill="#9a6700" stroke="#9a6700" points="487.4,-380.5 497.4,-377 487.4,-373.5 487.4,-380.5"/>
</g>
<!-- leg_a_4 -->
<g id="node14" class="node">
<title>leg_a_4</title>
</g>
<!-- leg_b_4 -->
<g id="node15" class="node">
<title>leg_b_4</title>
<text text-anchor="middle" x="528.5" y="-320.5" font-family="Helvetica,sans-Serif" font-size="10.00">User&#45;Defined</text>
</g>
<!-- leg_a_4&#45;&gt;leg_b_4 -->
<g id="edge10" class="edge">
<title>leg_a_4&#45;&gt;leg_b_4</title>
<path fill="none" stroke="#1a7f37" stroke-dasharray="1,5" d="M275.2,-323C321.57,-323 418.77,-323 478.07,-323"/>
<polygon fill="#1a7f37" stroke="#1a7f37" points="478.32,-326.5 488.32,-323 478.32,-319.5 478.32,-326.5"/>
</g>
</g>
</svg>
